<svg width="24" height="24" viewBox="0 0 24 24" fill="none" xmlns="http://www.w3.org/2000/svg">
<path d="M19.4349 4.06543H4.56494C3.9019 4.06543 3.26602 4.32882 2.79717 4.79766C2.32833 5.2665 2.06494 5.90239 2.06494 6.56543V17.4354C2.06494 18.0985 2.32833 18.7344 2.79717 19.2032C3.26602 19.672 3.9019 19.9354 4.56494 19.9354H19.4349C20.098 19.9354 20.7339 19.672 21.2027 19.2032C21.6715 18.7344 21.9349 18.0985 21.9349 17.4354V6.56543C21.9349 5.90239 21.6715 5.2665 21.2027 4.79766C20.7339 4.32882 20.098 4.06543 19.4349 4.06543ZM4.56494 5.06543H19.4349C19.8135 5.06434 20.1782 5.20744 20.4549 5.46564C20.7317 5.72384 20.8998 6.07775 20.9249 6.45543C18.4549 7.77543 15.9749 9.08543 13.4949 10.4054C13.1594 10.6157 12.8045 10.7932 12.4349 10.9354C12.1448 10.9927 11.8459 10.9875 11.5579 10.9203C11.27 10.853 10.9997 10.7252 10.7649 10.5454C9.34494 9.79543 7.92494 9.03543 6.51494 8.28543C5.37494 7.68543 4.21494 7.07543 3.07494 6.46543C3.09813 6.08615 3.26526 5.73003 3.54219 5.46983C3.81912 5.20962 4.18495 5.06498 4.56494 5.06543ZM20.9349 17.4354C20.9349 17.8333 20.7769 18.2148 20.4956 18.4961C20.2143 18.7774 19.8328 18.9354 19.4349 18.9354H4.56494C4.16712 18.9354 3.78559 18.7774 3.50428 18.4961C3.22298 18.2148 3.06494 17.8333 3.06494 17.4354V7.60043C5.42494 8.84043 7.77494 10.1004 10.1349 11.3504C10.5566 11.6089 11.0105 11.8107 11.4849 11.9504C12.1793 12.0633 12.891 11.9174 13.4849 11.5404C14.9349 10.7804 16.3749 10.0104 17.8249 9.25043C18.8649 8.69043 19.8949 8.15043 20.9349 7.60043V17.4354Z" fill="#001830" fill-opacity="0.8"/>
</svg>
